<?xml version="1.0" encoding="UTF-8" standalone="no"?>
<!-- Created with Inkscape (http://www.inkscape.org/) -->

<svg
   version="1.1"
   id="svg1"
   width="247.24522"
   height="198.46336"
   viewBox="0 0 247.24522 198.46336"
   sodipodi:docname="images.png"
   inkscape:export-filename="phoenix.svg"
   inkscape:export-xdpi="96"
   inkscape:export-ydpi="96"
   xmlns:inkscape="http://www.inkscape.org/namespaces/inkscape"
   xmlns:sodipodi="http://sodipodi.sourceforge.net/DTD/sodipodi-0.dtd"
   xmlns:xlink="http://www.w3.org/1999/xlink"
   xmlns="http://www.w3.org/2000/svg"
   xmlns:svg="http://www.w3.org/2000/svg">
  <defs
     id="defs1" />
  <sodipodi:namedview
     id="namedview1"
     pagecolor="#000000"
     bordercolor="#000000"
     borderopacity="0.25"
     inkscape:showpageshadow="2"
     inkscape:pageopacity="0.0"
     inkscape:pagecheckerboard="0"
     inkscape:deskcolor="#d1d1d1">
    <inkscape:page
       x="0"
       y="0"
       width="247.24522"
       height="198.46336"
       id="page2"
       margin="0"
       bleed="0" />
  </sodipodi:namedview>
  <g
     inkscape:groupmode="layer"
     inkscape:label="Image"
     id="g1"
     transform="translate(-1.4647774,-2.6040485)">
        <path
       style="fill:#ffffff"
       d="M 1.4647773,2.6040486 11.474089,26.40668 94.944115,86.082664 85.622329,66.633506 Z"
       id="path1" />
    <path
       style="fill:#ffffff"
       d="m 16.031174,32.95749 7.974899,20.832389 77.633197,60.951011 -0.40688,2.52267 -52.813362,-40.769633 4.475709,18.797976 53.789883,48.581777 0.16275,2.35992 8.13765,6.67288 -0.0814,42.47854 7.9749,5.45223 -0.0814,-40.28138 1.30202,-0.81376 c 0,0 -0.56964,-35.56154 -0.24413,-35.39879 0.32551,0.16275 -19.77449,-35.480162 -19.77449,-35.480162 L 98.546964,87.317004 97.977328,90.246559 95.047773,89.7583 Z"
       id="path2" />
    <path
       style="fill:#ffffff"
       d="m 105.26053,149.24453 c 0,0 -0.52895,16.6415 -0.32551,16.6415 0.20344,0 2.72611,1.34272 2.72611,1.34272 l 0.20345,-12.12511 2.15647,-0.0407 -0.0814,23.27368 3.05162,0.89514 0.12206,-25.06397 z"
       id="path3" />
    <path
       style="fill:#ffffff"
       d="m 233.77398,33.187657 -7.9749,20.832389 -77.6332,60.951004 0.40688,2.52267 52.81336,-40.769626 -4.47571,18.797976 -53.78988,48.58177 -0.16275,2.35992 -8.13765,6.67288 0.0814,42.47854 -7.9749,5.45223 0.0814,-40.28138 -1.30202,-0.81376 c 0,0 0.56964,-35.56154 0.24413,-35.39879 -0.32551,0.16275 19.77449,-35.480155 19.77449,-35.480155 l 5.53356,-1.546154 0.56963,2.929555 2.92956,-0.488259 z"
       id="path4" />
    <path
       style="fill:#ffffff"
       d="m 144.84962,149.12944 c 0,0 0.52895,16.6415 0.32551,16.6415 -0.20344,0 -2.72611,1.34272 -2.72611,1.34272 l -0.20345,-12.12511 -2.15647,-0.0407 0.0814,23.27368 -3.05162,0.89514 -0.12206,-25.06397 z"
       id="path5" />
    <path
       style="fill:#ffffff"
       d="M 248.71,2.6110296 238.70069,26.413661 155.23066,86.089645 164.55245,66.640487 Z"
       id="path6" />
    <path
       style="fill:#ffffff"
       d="m 102.85612,71.150544 3.27989,8.199719 12.94693,15.075975 -0.14386,3.596368 c 0,0 -3.68268,-2.762011 -3.56759,-2.762011 0.11508,0 8.02709,16.917315 8.02709,16.917315 l 0.6905,-24.656698 z"
       id="path7" />
    <path
       style="fill:#ffffff"
       d="m 147.03926,71.707064 -3.27989,8.199719 -12.94693,15.075975 0.14386,3.596371 c 0,0 3.68268,-2.76201 3.56759,-2.76201 -0.11508,0 -8.02709,16.917311 -8.02709,16.917311 l -0.6905,-24.656698 z"
       id="path8" />
  </g>
</svg>
